<svg width="136" height="24" viewBox="0 0 136 24" fill="none" xmlns="http://www.w3.org/2000/svg">
<path fill-rule="evenodd" clip-rule="evenodd" d="M39.0556 1.59468C33.4467 1.59468 28.8997 6.14163 28.8997 11.7506C28.8997 13.4055 29.2952 14.9665 29.9962 16.3458L29.0432 16.8302C28.2676 15.3043 27.8307 13.5777 27.8307 11.7506C27.8307 5.55121 32.8563 0.525635 39.0556 0.525635C45.255 0.525635 50.2806 5.55121 50.2806 11.7506C50.2806 17.9499 45.255 22.9755 39.0556 22.9755C37.0582 22.9755 35.181 22.4533 33.555 21.5376L34.0796 20.6061C35.5497 21.434 37.2467 21.9065 39.0556 21.9065C44.6646 21.9065 49.2115 17.3595 49.2115 11.7506C49.2115 6.14163 44.6646 1.59468 39.0556 1.59468Z" fill="#333333"/>
<path fill-rule="evenodd" clip-rule="evenodd" d="M96.9443 1.59468C91.3354 1.59468 86.7884 6.14163 86.7884 11.7506C86.7884 13.4055 87.1838 14.9665 87.8849 16.3458L86.9319 16.8302C86.1563 15.3043 85.7194 13.5777 85.7194 11.7506C85.7194 5.55121 90.7449 0.525635 96.9443 0.525635C103.144 0.525635 108.169 5.55121 108.169 11.7506C108.169 17.9499 103.144 22.9755 96.9443 22.9755C94.9468 22.9755 93.0697 22.4533 91.4437 21.5376L91.9683 20.6061C93.4383 21.434 95.1353 21.9065 96.9443 21.9065C102.553 21.9065 107.1 17.3595 107.1 11.7506C107.1 6.14163 102.553 1.59468 96.9443 1.59468Z" fill="#333333"/>
<path fill-rule="evenodd" clip-rule="evenodd" d="M79.3051 22.9844L79.3051 0.534546L80.3741 0.534546L80.3741 22.9844L79.3051 22.9844Z" fill="#333333"/>
<path d="M132.639 19.1242L113.515 0V22.9844H114.584V2.5809L135.964 23.9617V22.4572L132.639 19.1242Z" fill="#333333"/>
<path d="M135.964 16.808L134.895 15.7342V0.534521H135.964V16.808Z" fill="#333333"/>
<path fill-rule="evenodd" clip-rule="evenodd" d="M62.735 1.60359H52.5791V0.534546H63.804V22.9934H62.735V1.60359Z" fill="#333333"/>
<path fill-rule="evenodd" clip-rule="evenodd" d="M73.96 1.60359H66.4767V0.534546H73.96V1.60359Z" fill="#333333"/>
<path d="M0.0356445 7.99921V22.9844H1.10469V8.80187L0.0356445 7.99921Z" fill="#333333"/>
<path d="M11.2686 9.749L21.4165 2.13808V22.9844H22.4855V0L11.2606 8.41871L0.0356445 0V1.31506L11.2686 9.749Z" fill="#333333"/>
</svg>
